<svg width="17" height="18" viewBox="0 0 17 18" fill="none" xmlns="http://www.w3.org/2000/svg">
    <path d="M11.9597 5.46699C10.9844 4.49199 9.70902 4.00032 8.42532 4.00032V9.00032L4.89097 12.5337C6.84153 14.4837 10.0091 14.4837 11.968 12.5337C13.9186 10.5837 13.9186 7.41699 11.9597 5.46699ZM8.42532 0.666992C3.824 0.666992 0.0895996 4.40032 0.0895996 9.00032C0.0895996 13.6003 3.824 17.3337 8.42532 17.3337C13.0266 17.3337 16.761 13.6003 16.761 9.00032C16.761 4.40032 13.0266 0.666992 8.42532 0.666992ZM8.42532 15.667C4.74093 15.667 1.75674 12.6837 1.75674 9.00032C1.75674 5.31699 4.74093 2.33366 8.42532 2.33366C12.1097 2.33366 15.0939 5.31699 15.0939 9.00032C15.0939 12.6837 12.1097 15.667 8.42532 15.667Z" fill="#0A6672" fill-opacity="0.86"/>
</svg>
